PathFileType	4	(X/Y/Z)	65_2_98_p1_0-161_filt_butterworth.trc
DataRate	CameraRate	NumFrames	NumMarkers	Units	OrigDataRate	OrigDataStartFrame	OrigNumFrames
39.0	39.0	6	27	m	39.0	20	161
Frame#	Time	RHip			RKnee			RAnkle			RBigToe			RSmallToe			RHeel			LHip			LKnee			LAnkle			LBigToe			LSmallToe			LHeel			Neck			Head			Nose			RShoulder			RElbow			RWrist			RThumb			RIndex			RPinky			LShoulder			LElbow			LWrist			LThumb			LIndex			LPinky			
		X1	Y1	Z1	X2	Y2	Z2	X3	Y3	Z3	X4	Y4	Z4	X5	Y5	Z5	X6	Y6	Z6	X7	Y7	Z7	X8	Y8	Z8	X9	Y9	Z9	X10	Y10	Z10	X11	Y11	Z11	X12	Y12	Z12	X13	Y13	Z13	X14	Y14	Z14	X15	Y15	Z15	X16	Y16	Z16	X17	Y17	Z17	X18	Y18	Z18	X19	Y19	Z19	X20	Y20	Z20	X21	Y21	Z21	X22	Y22	Z22	X23	Y23	Z23	X24	Y24	Z24	X25	Y25	Z25	X26	Y26	Z26	X27	Y27	Z27	
20	0.5128205128205128	0.43128534838180266	0.7250099136250927	0.2796159591570366	0.388177324666841	0.8930989522619126	0.7258418369227579	0.31822254498973385	1.034705573207113	1.121836130402062	0.27281926439741255	0.8084949149471247	1.2000474433848738	0.3529156719284828	0.8347756566472698	1.1928638184644873	0.2863101049541175	1.1594085613950047	1.1934013798196155	0.2046931188567692	0.7547899928479807	0.26104428265989577	0.1624965857538499	0.8965439545031963	0.6893773512644104	0.13600591214012397	1.0203650277094494	1.090874657623452	0.13194501253649818	0.8276595102791349	1.1719816141483366	0.07295951685987745	0.9008218285919306	1.1668912355732806	0.1540207593940641	1.0891947728369082	1.1321013309966506	0.3874537759693404	0.46216726212894943	-0.33879951924645196	0.40029508698532035	0.25155275026357365	-0.5812515043446923	0.3907479485291223	0.2621335571707641	-0.40995209009316436	0.5436843729258587	0.44958516753669575	-0.2272816656097511	0.5653713212725012	0.6032904290350745	0.04974959033466431	0.3885740373098398	0.5587585049594129	0.25642286545816867	0.3044549315926044	0.5383890496556316	0.2844704163685414	0.29443765071252664	0.5768142436784255	0.3274626975338075	0.28113254875748295	0.6122873913027407	0.34233014903062725	0.20312446453260816	0.5105168675590391	-0.29429758983249393	0.10998922979442669	0.6636555392351158	-0.028485187754414026	0.21698195916607754	0.5422530029413594	0.20568765755334284	0.32120311905541477	0.5402177280627872	0.26427837539332394	0.3226138188854504	0.5424755337829154	0.2933039520866146	0.27825221577905096	0.5671468767729829	0.33937946922045986
21	0.5384615384615384	0.4319020264271102	0.7296717873291093	0.2795279704706993	0.3882631286855738	0.8932115104102671	0.7257829160974935	0.31823883283137855	1.0347391034149336	1.1218740222069603	0.27335069255768063	0.8019684717953708	1.199069061204411	0.3513060496033572	0.828044799647633	1.1929616786807786	0.286313666665203	1.1593516059043725	1.193640004750761	0.20452771971489125	0.754887795542717	0.26103000482168826	0.16238084098920733	0.8969139252168619	0.6907394762925168	0.13605439946871017	1.0203501882693755	1.0908875141267973	0.13196721818309423	0.8277026346166249	1.1719798754075115	0.07301442874922626	0.9006584980593264	1.166839830893882	0.15369672597128645	1.0894927099187064	1.1321008835966058	0.3875762169766578	0.4627932050549295	-0.3379812267245357	0.4012154001467254	0.2477476550602724	-0.5801929701794896	0.39048241860616756	0.2626531531973745	-0.40753989517749567	0.5438490344555096	0.44927480779559925	-0.22746303593854694	0.5669588183941544	0.5958071530932476	0.04920016624125881	0.39174104017153644	0.5548943422073107	0.2548646702362501	0.30139329551110133	0.5423817272029855	0.28281930699910507	0.2944869951423671	0.5770013499327602	0.327174163583304	0.281892904216134	0.6126945138218033	0.3444350836746717	0.20304247715630605	0.5103284306722005	-0.29427266162524046	0.10991997697822858	0.6643150528384681	-0.028484402733668972	0.21695732933507558	0.5426534139943352	0.20588010087566616	0.3202312425018177	0.5397022618831792	0.263319549816014	0.3225764813794842	0.5425271924516534	0.29346097521311143	0.2782347881693983	0.5671542898369483	0.3392562142333927
22	0.5641025641025641	0.43185301442740953	0.7298014626426694	0.27950232889984633	0.38828201558146574	0.8932858980887601	0.7257521850822447	0.3182433976864049	1.0347245309673065	1.1218814661771015	0.27372723015686906	0.7984966661986752	1.1998234453357957	0.350533207718105	0.824122611333453	1.1931395425240474	0.28635195287130033	1.1590909950835424	1.1936918103040206	0.2043842152517751	0.7551857326985514	0.2609029499526272	0.16239399608377833	0.8971746714605715	0.6924545298862524	0.13608188406158298	1.02032933340211	1.090899010626408	0.13196963672009418	0.8278340124651817	1.1720141496430345	0.07304867666230382	0.9005161030461084	1.16679232673287	0.1537521348420913	1.0885958858649767	1.1322842690849064	0.3876128570186903	0.4628480372215115	-0.3380609564527358	0.4028057412918298	0.24159840423581216	-0.5783467376375849	0.3903296280889644	0.2592703470424667	-0.405985516980963	0.5439266538736587	0.4495554767008755	-0.22766075386897425	0.5677243057996886	0.5915484888211694	0.04949383090401825	0.3909765136847668	0.5493368600128696	0.2539799542224147	0.2988287050646399	0.548320963928256	0.28121859624741796	0.29443087016138686	0.5770843267941982	0.32719606035254534	0.283262065081503	0.6164231445042583	0.34476205394314136	0.2030878177733124	0.5109786933641017	-0.2933743243138512	0.10987577016164976	0.6646815111172385	-0.028511210423837967	0.21716213365808953	0.5427684987914176	0.20588446355215667	0.31841369281703047	0.5397416189396805	0.26318653351873084	0.32127655375082	0.5426062044922735	0.29393669144006584	0.2782042414802079	0.5674103469358592	0.33919313306747717
23	0.5897435897435898	0.4312785348198507	0.7294637581550165	0.2797295926687845	0.3880872343379738	0.8933643869376344	0.72583389047873	0.3182552284171124	1.0346595850970253	1.1218059475979603	0.2738074384129261	0.798298055612547	1.2005401077260212	0.35070305788810346	0.8240478256110767	1.1931899743105654	0.28635475729959636	1.159101210560952	1.1922619624337538	0.2044543623374049	0.7554421192043625	0.26092224752884385	0.16238889234396517	0.8972456428014133	0.6924012787819143	0.13606984064853267	1.020343978339798	1.0908816344912333	0.13193129329928527	0.8278725378841989	1.1720373462729134	0.07300667320576665	0.9006785045222669	1.1668199079355832	0.15377908814749106	1.0878665988958398	1.132107425987732	0.38657791859268176	0.4598221573845237	-0.33670186195308316	0.4033926585533876	0.23909218237775978	-0.5765611175088282	0.39033629505286077	0.25326305078441586	-0.40453114746676777	0.5440242437095271	0.44961555946592974	-0.22781458908251606	0.5678243338144437	0.5916172914152543	0.04980878427909535	0.388809293463522	0.5457490274217833	0.25405325258615297	0.2987178573669187	0.5517689129382165	0.279546038468254	0.29446034421309325	0.5780795009727471	0.32847267944609315	0.284823994922261	0.6205878687302945	0.34294472184627284	0.20321633496027025	0.5112904042496995	-0.29181078713689423	0.1098770442806486	0.66438754536928	-0.028534894174453308	0.21757920284427323	0.5419230041601567	0.20477478854012787	0.3175634952298178	0.5399277045936902	0.2631901172641631	0.3198148761304337	0.5430372204688385	0.2935622812045209	0.27820630137387325	0.5681983665140901	0.3403434846407569
24	0.6153846153846154	0.43220422349466003	0.7298191860087867	0.2797545066902262	0.3881167817589643	0.8936341097089864	0.7260515620157584	0.31826483191287724	1.0345832945158413	1.1216899716556579	0.2732854613999681	0.7982118136576682	1.1978792446798543	0.350772009692217	0.8244831381960906	1.1929722549095583	0.2861428947417525	1.16003895350767	1.1897125937111204	0.20559842076766036	0.7561263448767531	0.2608562540626501	0.16233920285965855	0.8971226244690229	0.6906689881093151	0.1360275760975569	1.0203490745896333	1.090834610637045	0.1317462806666428	0.8272999415163973	1.1718643722117101	0.07286712562144819	0.9011865705103078	1.1669376610618925	0.15361131848318865	1.0874681394040446	1.1318593852158787	0.38476183086985294	0.4545548653289691	-0.33398541971385753	0.4030227071832178	0.24023764567823397	-0.5742970832281128	0.3906211248585134	0.2503908264691781	-0.40311875256373586	0.5439938584853707	0.4501525644021635	-0.2278113708503237	0.5678682952176266	0.5924693165859483	0.0497635740975998	0.39117124501612077	0.544688032235384	0.254269963447047	0.2997829515795063	0.552082447788655	0.27864202530867915	0.2946671149753759	0.5803141480587835	0.33048405915401285	0.2869975909832303	0.6207545893753803	0.3407982820032885	0.20236107215686425	0.5079819747764696	-0.29026637978408254	0.10989950678390176	0.663862836602932	-0.028648139975780945	0.21672098771544737	0.5415636600125079	0.2026984099056143	0.3178737046782919	0.5399328898482548	0.26310842796168893	0.3197749299976727	0.5434002677149019	0.2912823669058618	0.2783957964760376	0.5685175921714496	0.3425787931670504
25	0.6410256410256411	0.4338306463448732	0.7293856524694557	0.27868456353580073	0.38944227155803285	0.8941034559618062	0.7262155744432682	0.3182642781995076	1.034581467061848	1.1216315317428185	0.27265779992383027	0.7979334746957887	1.1951370804486703	0.3504973684066606	0.8245809169312164	1.1926951312485499	0.2863590445656848	1.1592599505456946	1.1882235902445213	0.20759648953139206	0.7591770731491397	0.25968014141832724	0.16217037380460486	0.8970355683689129	0.6895969613339388	0.13600327394070358	1.020305671391559	1.0907898199789339	0.13172582317945436	0.8274662785182167	1.1719148998398785	0.07276631825489593	0.9016267456342815	1.167036288072877	0.15344873241191104	1.0872700665367832	1.1318236254415535	0.38364384187399564	0.45174682015384815	-0.3312411405751835	0.40350368869084263	0.23835027042934753	-0.5711494856441277	0.3905239662851605	0.25060614682124605	-0.40170935981359013	0.5438494160001962	0.45085870804378975	-0.22706298741282077	0.568062979778563	0.5926962681984066	0.04867751870900398	0.39743128193796706	0.5443278334764131	0.25433659795889807	0.3002282795030317	0.5517881015739591	0.278985306224088	0.2947892430745527	0.581234485419022	0.3314682480631204	0.2896221543609446	0.6144793219858464	0.34042908251132953	0.19976058570578142	0.5018836855497976	-0.2883759718195592	0.10986548734999907	0.6638632941440622	-0.028895412490283393	0.21368573177711303	0.5453741679549865	0.20121241313416133	0.3166005693830858	0.5391234915986447	0.2630496476596714	0.31988838522561375	0.543357528049889	0.2891597974717043	0.27839863702023326	0.5691060051185115	0.34386125478318397
